<svg version="1.1" id="Layer_1" xmlns="http://www.w3.org/2000/svg" xmlns:xlink="http://www.w3.org/1999/xlink" x="0px" y="0px"
	 width="100%" viewBox="290 65 185 185" enable-background="new 0 0 768 476" xml:space="preserve">
<path fill="#ffffff" opacity="1.000000" stroke="none" 
	d="
M350.989441,193.867630 
	C361.976471,219.295227 381.910126,234.350296 407.883759,244.528046 
	C377.388672,251.880234 350.469025,247.774384 326.342560,229.533813 
	C312.298553,218.916000 302.144196,205.416306 295.825806,188.689789 
	C286.461639,163.900391 288.530487,140.180328 299.144348,116.335960 
	C304.541168,104.211868 312.863068,94.501686 322.398254,86.078949 
	C332.167450,77.449509 343.987030,71.501854 356.809082,68.235008 
	C378.608032,62.681019 399.611908,64.402290 420.419861,73.668465 
	C438.847534,81.874649 452.252319,95.089119 461.698944,112.152885 
	C470.879791,128.736542 474.711456,146.729401 472.233429,166.057343 
	C470.918213,176.315964 468.865753,186.239761 464.441925,195.402893 
	C457.820374,209.118073 449.610779,221.929886 435.171448,228.776703 
	C422.554321,234.759491 409.932953,233.926743 398.195435,226.270050 
	C387.317108,219.173859 381.697296,208.838486 380.950317,196.372604 
	C387.395905,194.263474 393.775116,192.843506 399.552979,190.138870 
	C409.847595,185.319916 417.195251,176.939148 420.055359,166.169830 
	C421.635986,160.218201 420.684509,152.975616 418.919617,146.881088 
	C415.092560,133.665405 407.054138,123.218567 393.128204,119.630142 
	C380.897827,116.478615 368.440826,116.280289 357.599457,124.459183 
	C347.846039,131.817307 343.921112,142.555527 343.029205,154.108734 
	C341.971497,167.809967 345.169495,180.989044 350.989441,193.867630 
z"/>
</svg>