<svg version="1.1" id="Layer_1" xmlns="http://www.w3.org/2000/svg" xmlns:xlink="http://www.w3.org/1999/xlink" x="0px" y="0px"
	 width="100%" viewBox="0 0 768 476" enable-background="new 0 0 768 476" xml:space="preserve">
<path fill="#ffffff" opacity="1.000000" stroke="none" 
	d="
M350.989441,193.867630 
	C361.976471,219.295227 381.910126,234.350296 407.883759,244.528046 
	C377.388672,251.880234 350.469025,247.774384 326.342560,229.533813 
	C312.298553,218.916000 302.144196,205.416306 295.825806,188.689789 
	C286.461639,163.900391 288.530487,140.180328 299.144348,116.335960 
	C304.541168,104.211868 312.863068,94.501686 322.398254,86.078949 
	C332.167450,77.449509 343.987030,71.501854 356.809082,68.235008 
	C378.608032,62.681019 399.611908,64.402290 420.419861,73.668465 
	C438.847534,81.874649 452.252319,95.089119 461.698944,112.152885 
	C470.879791,128.736542 474.711456,146.729401 472.233429,166.057343 
	C470.918213,176.315964 468.865753,186.239761 464.441925,195.402893 
	C457.820374,209.118073 449.610779,221.929886 435.171448,228.776703 
	C422.554321,234.759491 409.932953,233.926743 398.195435,226.270050 
	C387.317108,219.173859 381.697296,208.838486 380.950317,196.372604 
	C387.395905,194.263474 393.775116,192.843506 399.552979,190.138870 
	C409.847595,185.319916 417.195251,176.939148 420.055359,166.169830 
	C421.635986,160.218201 420.684509,152.975616 418.919617,146.881088 
	C415.092560,133.665405 407.054138,123.218567 393.128204,119.630142 
	C380.897827,116.478615 368.440826,116.280289 357.599457,124.459183 
	C347.846039,131.817307 343.921112,142.555527 343.029205,154.108734 
	C341.971497,167.809967 345.169495,180.989044 350.989441,193.867630 
z"/>
<path fill="#ffffff" opacity="1.000000" stroke="none" 
	d="
M452.061890,368.946655 
	C439.716553,357.902893 433.562592,344.057953 433.581116,328.186951 
	C433.615753,298.491577 455.199341,275.831268 483.651764,272.990936 
	C500.510376,271.307983 515.338013,276.279877 527.347778,287.773468 
	C539.916870,299.802277 545.356262,314.926117 544.104187,332.677765 
	C542.411987,356.668823 523.721558,376.274902 503.530029,381.216400 
	C484.505554,385.872284 467.310394,382.062378 452.061890,368.946655 
M497.602783,295.618744 
	C489.667603,293.504272 481.905090,294.144226 474.517731,297.612671 
	C462.659821,303.180115 456.653229,312.975250 455.727997,325.752014 
	C454.801178,338.551147 459.906403,349.100067 470.623169,355.884491 
	C490.753265,368.627991 516.614685,358.776031 521.829102,334.563660 
	C525.271423,318.579895 517.873291,301.538422 497.602783,295.618744 
z"/>
<path fill="#ffffff" opacity="1.000000" stroke="none" 
	d="
M50.450405,371.942078 
	C50.451004,367.496185 50.451004,363.536224 50.451004,359.212067 
	C64.452965,359.212067 77.909752,359.212524 91.366547,359.211548 
	C93.199028,359.211426 95.033371,359.256439 96.863655,359.191071 
	C104.211197,358.928680 108.322617,355.262512 108.434189,348.920746 
	C108.544266,342.663696 103.890358,338.207153 96.715935,338.033997 
	C90.056168,337.873260 83.385727,337.851715 76.726639,338.024719 
	C60.055557,338.457855 45.050888,325.136261 44.583035,305.719971 
	C44.180553,289.016876 58.993874,274.236877 76.329887,274.053925 
	C92.644318,273.881744 108.961990,274.016998 125.619614,274.016998 
	C125.619614,281.196716 125.619614,288.239197 125.619614,295.793152 
	C121.784775,295.793152 118.000374,295.789246 114.215981,295.793884 
	C101.888359,295.809052 89.559776,295.741638 77.233498,295.879211 
	C70.698547,295.952118 66.596321,299.959290 66.536278,305.867493 
	C66.472580,312.133759 70.529167,316.177765 77.246574,316.394104 
	C85.388222,316.656311 93.546364,316.596985 101.673409,317.079895 
	C116.008827,317.931763 131.659424,330.766266 130.087280,352.070160 
	C128.988724,366.956635 115.093849,380.599701 99.062874,380.838837 
	C83.080757,381.077240 67.092308,380.891144 50.449806,380.891144 
	C50.449806,377.966827 50.449806,375.197449 50.450405,371.942078 
z"/>
<path fill="#ffffff" opacity="1.000000" stroke="none" 
	d="
M632.513062,362.442078 
	C626.645508,372.178772 618.715515,378.105194 607.890442,381.191040 
	C596.736145,384.370789 587.067078,381.675201 576.910156,376.049377 
	C576.910156,388.261292 576.910156,399.644012 576.910156,411.311646 
	C569.863525,411.311646 563.273865,411.311646 555.845032,411.311646 
	C555.845032,374.742706 555.845032,338.193176 555.845032,301.447754 
	C563.761719,298.615356 564.485107,307.364594 568.068176,309.195282 
	C575.507812,305.608826 582.048767,301.082672 589.274597,299.235626 
	C609.100769,294.167664 632.143921,306.516235 636.951965,330.792236 
	C639.122986,341.753937 637.628296,352.153717 632.513062,362.442078 
M616.232483,334.603424 
	C613.192139,324.445282 607.146606,319.120636 598.363953,318.865509 
	C588.478638,318.578308 581.672607,322.988525 578.378540,331.815857 
	C574.501648,342.204956 579.147827,355.431610 587.807556,359.357330 
	C595.492493,362.841095 602.865417,362.271515 609.317139,357.179993 
	C616.266113,351.696045 617.496216,343.793213 616.232483,334.603424 
z"/>
<path fill="#ffffff" opacity="1.000000" stroke="none" 
	d="
M673.000000,380.940735 
	C663.869141,380.940735 655.238281,380.940735 646.323730,380.940735 
	C646.323730,374.042816 646.323730,367.456757 646.323730,360.418213 
	C647.663025,360.336243 649.094421,360.174774 650.526001,360.172577 
	C663.516418,360.152557 676.507080,360.191986 689.497131,360.122986 
	C691.268860,360.113586 693.261902,360.009491 694.736938,359.195892 
	C695.903381,358.552490 696.992859,356.777100 697.049805,355.458374 
	C697.088745,354.555878 695.347412,352.823425 694.311462,352.750610 
	C687.865540,352.297852 681.387390,352.326385 674.933533,351.956940 
	C670.832825,351.722198 666.547485,351.724213 662.707092,350.491547 
	C651.309143,346.833069 644.567993,334.940002 646.233154,322.444366 
	C647.755798,311.017883 657.903137,301.498169 669.744080,301.211060 
	C683.884460,300.868256 698.039429,301.130249 712.549866,301.130249 
	C712.549866,307.910431 712.549866,314.612579 712.549866,321.841339 
	C699.554260,321.841339 686.613831,321.817017 673.673706,321.872314 
	C672.069031,321.879150 669.893311,321.755707 669.002563,322.678009 
	C667.798401,323.924774 666.678040,326.458984 667.183105,327.827637 
	C667.744751,329.349365 670.114624,331.052795 671.799744,331.167084 
	C680.078064,331.728516 688.408997,331.516357 696.686951,332.081116 
	C714.080566,333.267792 723.923523,352.943665 714.486816,368.156586 
	C709.244141,376.608185 702.028748,380.584625 692.484863,380.897858 
	C686.162903,381.105347 679.828735,380.939453 673.000000,380.940735 
z"/>
<path fill="#ffffff" opacity="1.000000" stroke="none" 
	d="
M417.506531,327.555817 
	C408.133575,338.733551 399.008240,349.652069 389.824066,360.640961 
	C396.096527,363.432556 407.539246,359.578735 411.867004,350.453857 
	C416.689789,355.511505 421.520508,360.577484 426.469696,365.767700 
	C417.531403,380.150848 398.540741,384.702179 385.040863,381.599854 
	C364.564117,376.894226 354.052521,359.402527 353.015778,343.109985 
	C351.670410,321.968079 364.518250,305.110718 379.801605,300.159454 
	C397.974792,294.272034 416.856506,300.273010 427.388763,315.431030 
	C424.186035,319.375336 420.970062,323.335968 417.506531,327.555817 
M375.647308,331.430481 
	C373.693726,337.296387 373.113251,343.143677 376.031250,350.063782 
	C383.934662,339.552155 391.354675,329.683472 398.959686,319.568695 
	C388.132660,317.935730 380.283295,320.823303 375.647308,331.430481 
z"/>
<path fill="#ffffff" opacity="1.000000" stroke="none" 
	d="
M204.191833,329.266846 
	C210.638901,308.965912 225.217178,297.788513 244.487625,298.006989 
	C263.268372,298.219971 277.760437,309.318359 282.966034,327.474823 
	C288.102234,345.389130 282.026917,364.217560 267.674164,374.575989 
	C254.805588,383.863220 240.788223,384.924805 226.738281,378.423767 
	C211.789795,371.506989 204.033539,358.995148 203.140045,342.542664 
	C202.908859,338.285492 203.769363,333.969055 204.191833,329.266846 
M262.238831,331.588959 
	C258.191101,322.141541 249.984863,317.405090 240.505524,319.044922 
	C230.953964,320.697266 224.638535,327.905334 224.013718,338.439850 
	C223.467636,347.647400 227.018402,354.915253 235.325104,359.445984 
	C241.923004,363.044708 250.712234,362.271637 256.592896,356.933105 
	C263.988464,350.219421 265.136749,341.651001 262.238831,331.588959 
z"/>
<path fill="#ffffff" opacity="1.000000" stroke="none" 
	d="
M173.011307,321.799103 
	C170.374481,321.799469 168.238068,321.799469 165.798920,321.799469 
	C165.798920,330.601807 165.364136,339.063019 165.930054,347.456726 
	C166.424347,354.787842 172.710327,359.935028 180.214264,360.140717 
	C185.363861,360.281921 190.520477,360.167816 196.052307,360.167816 
	C196.052307,367.211182 196.052307,373.943115 196.052307,380.899811 
	C185.192322,380.636139 174.244431,382.450867 164.199463,376.827148 
	C152.080048,370.042084 145.439331,359.808136 145.054642,345.839905 
	C144.839645,338.033020 145.015991,330.215363 145.015991,321.928101 
	C141.728119,321.928101 138.664276,321.928101 135.321075,321.928101 
	C135.321075,314.876099 135.321075,308.294495 135.321075,301.278687 
	C138.315887,301.278687 141.389832,301.278687 144.513092,301.278687 
	C144.513092,290.493866 144.513092,280.145203 144.513092,269.428406 
	C151.116882,269.428406 158.135635,269.428406 165.567322,269.428406 
	C165.567322,279.838837 165.567322,290.245392 165.567322,300.962036 
	C175.922348,300.962036 185.878586,300.962036 196.123383,300.962036 
	C196.123383,308.010376 196.123383,314.743164 196.123383,321.798737 
	C188.455231,321.798737 180.983475,321.798737 173.011307,321.799103 
z"/>
<path fill="#ffffff" opacity="1.000000" stroke="none" 
	d="
M316.291534,304.240234 
	C327.119385,299.266754 338.233093,301.728119 349.444702,300.928040 
	C349.444702,307.946716 349.444702,314.641724 349.444702,321.492126 
	C342.771790,321.800323 336.215485,322.092865 329.660278,322.408356 
	C320.604828,322.844116 316.392273,330.341827 316.413818,337.111450 
	C316.456207,350.419952 316.422791,363.728638 316.420776,377.037262 
	C316.420593,378.179352 316.420715,379.321472 316.420715,380.690460 
	C309.464386,380.690460 302.871735,380.690460 295.849365,380.690460 
	C295.849365,354.288849 295.849365,327.805054 295.849365,301.313263 
	C303.484436,298.979401 303.311127,307.182404 307.839691,309.666351 
	C310.228271,308.106781 313.083191,306.242706 316.291534,304.240234 
z"/>
</svg>